HIERARCHY
ROOT Hips
{
	OFFSET 0.00000 0.00000 0.00000
	CHANNELS 6 Xposition Yposition Zposition Zrotation Yrotation Xrotation 
	JOINT LHipJoint
	{
		OFFSET 0 0 0
		CHANNELS 3 Zrotation Yrotation Xrotation
		JOINT LeftHip
		{
			OFFSET 1.40252 -1.71424 0.59123
			CHANNELS 3 Zrotation Yrotation Xrotation
			JOINT LeftKnee
			{
				OFFSET 2.50071 -6.87065 0.00000
				CHANNELS 3 Zrotation Yrotation Xrotation
				JOINT LeftAnkle
				{
					OFFSET 2.50834 -6.89162 0.00000
					CHANNELS 3 Zrotation Yrotation Xrotation
					JOINT LeftToe
					{
						OFFSET 0.21528 -0.59149 1.64448
						CHANNELS 3 Zrotation Yrotation Xrotation
						End Site
						{
							OFFSET 0.00000 -0.00000 0.87921
						}
					}
				}
			}
		}
	}
	JOINT RHipJoint
	{
		OFFSET 0 0 0
		CHANNELS 3 Zrotation Yrotation Xrotation
		JOINT RightHip
		{
			OFFSET -1.53651 -1.71424 0.59123
			CHANNELS 3 Zrotation Yrotation Xrotation
			JOINT RightKnee
			{
				OFFSET -2.45783 -6.75285 0.00000
				CHANNELS 3 Zrotation Yrotation Xrotation
				JOINT RightAnkle
				{
					OFFSET -2.51921 -6.92147 0.00000
					CHANNELS 3 Zrotation Yrotation Xrotation
					JOINT RightToe
					{
						OFFSET -0.21777 -0.59831 1.59676
						CHANNELS 3 Zrotation Yrotation Xrotation
						End Site
						{
							OFFSET -0.00000 -0.00000 0.85779
						}
					}
				}
			}
		}
	}
	JOINT lowerback
	{
		OFFSET 0 0 0
		CHANNELS 3 Zrotation Yrotation Xrotation
		JOINT Chest
		{
			OFFSET 0.02212 2.07622 0.03776
			CHANNELS 3 Zrotation Yrotation Xrotation
			JOINT Chest2
			{
				OFFSET -0.00949 2.08009 -0.00123
				CHANNELS 3 Zrotation Yrotation Xrotation
				JOINT lowerneck
				{
					OFFSET 0 0 0
					CHANNELS 3 Zrotation Yrotation Xrotation
					JOINT Neck
					{
						OFFSET 0.00288 1.67184 0.11155
						CHANNELS 3 Zrotation Yrotation Xrotation
						JOINT Head
						{
							OFFSET -0.02412 1.66997 -0.22040
							CHANNELS 3 Zrotation Yrotation Xrotation
							End Site
							{
								OFFSET -0.01026 1.69043 -0.08683
							}
						}
					}
				}
				JOINT LeftCollar
				{
					OFFSET 0 0 0
					CHANNELS 3 Zrotation Yrotation Xrotation
					JOINT LeftShoulder
					{
						OFFSET 3.97941 0.74048 0.81462
CHANNELS 3 Zrotation Xrotation Yrotation
						JOINT LeftElbow
						{
OFFSET 0 -5.018340 -0.000000
CHANNELS 3 Zrotation Xrotation Yrotation
							JOINT LeftWrist
							{
OFFSET 0 -3.486900 0.000000
CHANNELS 3 Zrotation Xrotation Yrotation
								JOINT lhand
								{
									OFFSET 0 0 0
CHANNELS 3 Zrotation Xrotation Yrotation
									JOINT LFingers
									{
OFFSET 0 -0.767990 0.000000
CHANNELS 3 Zrotation Xrotation Yrotation
										End Site
										{
OFFSET 0 -0.619170 0.000000
										}
									}
								}
								JOINT LThumb
								{
OFFSET 0 0.000000 0.000000
CHANNELS 3 Zrotation Xrotation Yrotation
									End Site
									{
OFFSET 0 -0.628630 0.628630
									}
								}
							}
						}
					}
				}
				JOINT RightCollar
				{
					OFFSET 0 0 0
					CHANNELS 3 Zrotation Yrotation Xrotation
					JOINT RightShoulder
					{
						OFFSET -3.88702 1.02123 0.44091
CHANNELS 3 Zrotation Xrotation Yrotation
						JOINT RightElbow
						{
OFFSET 0 -4.701640 0.000000
CHANNELS 3 Zrotation Xrotation Yrotation
							JOINT RightWrist
							{
OFFSET 0 -3.499110 0.000000
CHANNELS 3 Zrotation Xrotation Yrotation
								JOINT rhand
								{
									OFFSET 0 0 0
CHANNELS 3 Zrotation Xrotation Yrotation
									JOINT RFingers
									{
OFFSET 0 -0.739330 0.000000
CHANNELS 3 Zrotation Xrotation Yrotation
										End Site
										{
OFFSET 0 -0.596070 0.000000
										}
									}
								}
								JOINT RThumb
								{
OFFSET 0 0.000000 0.000000
CHANNELS 3 Zrotation Xrotation Yrotation
									End Site
									{
OFFSET 0 -0.605170 0.605170
									}
								}
							}
						}
					}
				}
			}
		}
	}
}
MOTION
Frames: 11
Frame Time: 0.008333333333333333
-6.278500 17.376900 0.080300 11.396500 81.262300 20.264600 0.000000 0.000000 0.000000 -23.988700 3.387700 -20.188900 0.665300 5.216400 14.526900 0.431200 -0.865800 -12.133100 0.160200 2.579000 7.108600 0.000000 0.000000 0.000000 12.993700 -2.803800 -17.113500 -9.869800 -17.336000 59.052300 0.253900 -9.096900 -5.389600 -1.813900 -8.467100 24.142100 -1.381400 2.334000 -8.681900 -2.483500 3.376000 -2.120600 -1.421700 1.707100 2.735400 1.573000 0.094900 -9.441600 -2.392900 0.895900 23.567800 -0.957800 0.499200 8.931200 0.000000 -0.000000 0.000000 -0.862200 -1.617900 -19.946500 14.323100 -23.194700 2.954200 18.803000 12.731600 -43.420700 0.000000 0.000000 0.000000 -7.125000 0.000000 0.000000 -31.527100 72.879400 21.419100 0.000000 -0.000000 0.000000 8.008900 6.199600 19.454000 -14.779100 -23.837500 -3.136100 -24.273400 25.949700 -7.146300 0.000000 0.000000 0.000000 7.125000 0.000000 -0.000000 1.837400 22.150100 1.009600
-5.850135 17.411325 -0.004265 14.372059 82.314231 22.721190 0.000000 0.000000 0.000000 -24.565756 3.762170 -17.542248 0.594984 4.938036 13.732044 0.549234 -1.939885 -13.465499 0.214242 2.979791 8.222540 0.000000 0.000000 0.000000 13.197825 -1.997463 -21.442147 -10.096569 -17.463754 59.810414 0.135222 -8.957637 -9.786843 -1.317947 -7.257187 20.485941 -1.463996 1.636663 -8.304364 -2.320194 2.438037 -1.998625 -1.318288 1.237592 2.625222 1.517058 0.186337 -9.412121 -2.392421 1.070633 24.081912 -0.931001 0.584476 9.107750 0.000000 0.000000 0.000000 -0.796081 -4.269434 -20.087893 14.011950 -22.751804 2.832728 18.882880 12.715219 -43.698247 0.000000 0.000000 0.000000 -7.125000 0.000000 0.000000 -32.044470 73.124922 21.953742 0.000000 0.000000 0.000000 7.819054 5.203443 18.087451 -14.997733 -24.142855 -3.225061 -24.459457 25.762669 -7.304223 0.000000 0.000000 0.000000 7.125000 0.000000 0.000000 1.705942 21.965649 0.944409
-5.437722 17.427997 -0.074301 15.570466 83.350204 23.268129 0.000000 0.000000 0.000000 -24.691487 4.079976 -14.767281 0.527728 4.655066 12.927332 0.654161 -2.434255 -14.642266 0.159031 2.569403 7.082171 0.000000 0.000000 0.000000 13.705321 0.135240 -24.375436 -9.132489 -16.890276 56.544159 -0.126744 -9.095833 -15.001127 -0.423555 -4.169614 11.555367 -1.249907 1.039391 -7.968338 -2.039085 1.604370 -1.585190 -1.237109 0.816438 2.851505 1.466614 0.402744 -9.595662 -2.231878 1.331560 24.063608 -0.840098 0.713118 9.140908 0.000000 0.000000 0.000000 -0.955771 -6.766538 -20.945103 14.601341 -23.587107 3.065089 19.027289 10.677982 -44.494602 0.000000 0.000000 0.000000 -7.125000 0.000000 0.000000 -33.723573 73.788031 23.632187 0.000000 0.000000 0.000000 7.249380 4.416272 18.785223 -15.438929 -24.753841 -3.407679 -24.643107 24.434822 -7.454936 0.000000 0.000000 0.000000 7.125000 0.000000 0.000000 1.576658 21.788665 0.879100
-5.035513 17.419805 -0.121003 16.802808 84.308318 24.274342 0.000000 0.000000 0.000000 -24.714009 4.415011 -12.784527 0.495880 4.514802 12.529620 0.741705 -2.485780 -15.617017 0.034321 1.008460 2.773699 0.000000 0.000000 0.000000 13.914286 3.083903 -26.774104 -7.440656 -15.685849 50.511485 -0.273441 -9.781831 -17.770794 -0.373429 -3.924695 10.865011 -1.022518 0.629118 -7.636425 -1.829073 1.021563 -1.521226 -1.211194 0.525565 2.724615 1.443288 0.433225 -9.560823 -2.168366 1.342052 23.798044 -0.813359 0.717873 9.041771 0.000000 0.000000 0.000000 -1.039452 -8.273321 -23.127188 16.108745 -25.665785 3.694091 18.225761 5.821922 -44.839856 0.000000 0.000000 0.000000 -7.125000 0.000000 0.000000 -35.469022 73.750893 24.903151 0.000000 0.000000 0.000000 6.741216 4.359519 19.397103 -15.838415 -25.300972 -3.576664 -24.443485 23.888817 -7.529053 0.000000 0.000000 0.000000 7.125000 0.000000 0.000000 1.724447 21.720638 0.964186
-4.628236 17.394774 -0.153596 20.816052 85.331554 27.888855 0.000000 0.000000 0.000000 -24.779334 4.700141 -10.782045 0.498788 4.527834 12.566640 0.947886 -3.066434 -17.623131 0.045557 1.357171 3.732416 0.000000 0.000000 0.000000 13.649283 5.697904 -27.963451 -5.419223 -13.832016 42.586166 -0.380566 -9.468226 -18.692962 -0.345652 -3.776887 10.449793 -0.801280 0.301867 -7.310214 -1.732362 0.556744 -1.274090 -1.282651 0.292752 2.792287 1.480509 0.438132 -9.739320 -2.083321 1.302420 23.662842 -0.794631 0.705577 9.027320 0.000000 0.000000 0.000000 -1.088306 -9.641706 -25.916618 18.152618 -28.349843 4.622720 18.139245 0.835098 -45.699839 0.000000 0.000000 0.000000 -7.125000 0.000000 0.000000 -37.763986 74.339696 27.071688 0.000000 0.000000 0.000000 6.414319 4.255209 19.098834 -15.994771 -25.513492 -3.643682 -24.245900 23.561155 -7.604428 0.000000 0.000000 0.000000 7.125000 0.000000 0.000000 1.870408 21.651295 1.048857
-4.192053 17.363404 -0.166528 31.816556 86.349879 38.542104 0.000000 0.000000 0.000000 -24.999783 4.903862 -8.956017 0.536948 4.695086 13.040952 1.084592 -3.524981 -18.823330 0.001623 0.242273 0.665650 0.000000 0.000000 0.000000 12.840136 7.847235 -28.180631 -3.421316 -11.342159 33.449107 -0.225884 -9.395232 -16.733354 -0.259778 -3.278107 9.053960 -0.783443 0.051646 -7.360113 -1.749247 0.225344 -1.010477 -1.342576 0.126787 3.086990 1.380782 0.250928 -9.630564 -2.066601 1.045778 23.452131 -0.798930 0.577221 8.928058 0.000000 0.000000 0.000000 -1.217025 -10.775107 -28.556437 20.350554 -31.061721 5.711536 17.944107 -3.378467 -46.572527 0.000000 0.000000 0.000000 -7.125000 0.000000 0.000000 -40.380874 74.867473 29.505372 0.000000 0.000000 0.000000 6.183215 4.430803 17.675258 -15.868755 -25.342363 -3.589582 -24.367416 23.938813 -7.875037 0.000000 0.000000 0.000000 7.125000 0.000000 0.000000 1.790461 21.347463 1.016371
-3.718497 17.308763 -0.153878 50.127754 87.234260 56.570693 0.000000 0.000000 0.000000 -24.986206 5.369032 -7.192320 0.579842 4.876123 13.555544 1.258244 -3.956293 -20.266483 0.023627 -0.972638 -2.673746 0.000000 0.000000 0.000000 11.855050 9.937272 -27.520554 -1.789191 -8.405399 23.956851 0.123785 -9.750990 -11.536026 -0.101157 -2.045214 5.630880 -0.723380 -0.099660 -7.760065 -1.740143 0.028681 -0.751892 -1.389286 0.029307 3.574546 1.160226 0.009201 -9.684700 -2.125418 0.772059 23.545172 -0.810038 0.425976 8.964487 0.000000 0.000000 0.000000 -1.541144 -11.895232 -30.894553 22.274426 -33.285012 6.736182 17.946862 -7.073993 -47.476012 0.000000 0.000000 0.000000 -7.125000 0.000000 0.000000 -43.079084 75.456731 32.123936 0.000000 0.000000 0.000000 5.778707 4.829330 15.893217 -15.588499 -24.959565 -3.470521 -24.124757 24.738454 -7.787724 0.000000 0.000000 0.000000 7.125000 0.000000 0.000000 1.963874 21.459272 1.109915
-3.223710 17.241208 -0.135619 80.586483 87.799469 86.918632 0.000000 0.000000 0.000000 -24.729920 6.097975 -5.759391 0.645363 5.138844 14.305042 1.463897 -4.369035 -21.865405 0.162610 -2.593093 -7.148219 0.000000 0.000000 0.000000 10.550040 12.648318 -25.861904 -0.675893 -5.232932 14.579775 0.282378 -11.225424 -10.735860 -0.000965 -0.060416 0.166089 -0.535791 -0.230999 -8.217476 -1.520819 -0.164729 -0.613716 -1.292389 -0.066011 3.970161 0.913670 -0.186448 -9.792538 -2.360986 0.611032 23.629565 -0.865347 0.306654 9.011114 0.000000 0.000000 0.000000 -2.227257 -12.714167 -32.890371 24.263503 -35.439814 7.859646 17.911308 -10.446384 -47.932135 0.000000 0.000000 0.000000 -7.125000 0.000000 0.000000 -44.560168 75.725729 33.545843 0.000000 0.000000 0.000000 4.852279 5.229200 13.434194 -15.063187 -24.233900 -3.251883 -23.209244 26.235425 -8.487332 0.000000 0.000000 0.000000 7.125000 0.000000 0.000000 2.646355 20.761944 1.538315
-2.694953 17.165203 -0.086989 115.950260 87.350907 122.618190 0.000000 0.000000 0.000000 -24.697636 5.193354 -4.085196 0.697988 5.340298 14.881795 1.650242 -4.113113 -23.311864 0.215528 -2.988673 -8.247206 0.000000 0.000000 0.000000 8.129306 17.373889 -23.572737 -0.151960 -2.477518 6.829116 0.765751 -16.567174 -13.184555 -0.006747 -0.407971 1.121117 -0.682246 -0.534269 -8.901791 -1.333228 -0.548944 -0.892684 -1.065177 -0.257562 4.059112 0.817743 -0.240640 -9.865751 -2.563841 0.622122 23.843444 -0.917448 0.286949 9.099913 0.000000 0.000000 0.000000 -2.747459 -12.532337 -34.041787 26.605507 -37.797341 9.257513 17.833367 -14.042555 -48.354939 0.000000 0.000000 0.000000 -7.125000 0.000000 0.000000 -46.024069 75.948140 34.932548 0.000000 0.000000 0.000000 3.624410 5.855728 10.704236 -14.345668 -23.226246 -2.963382 -22.572527 28.522562 -8.616979 0.000000 0.000000 0.000000 7.125000 0.000000 0.000000 3.108843 20.666383 1.814428
-2.142643 17.087696 -0.015023 138.510816 86.202568 145.254436 0.000000 0.000000 0.000000 -24.313752 4.681684 -2.106570 0.742929 5.505988 15.357596 1.791926 -4.090584 -24.339027 0.244341 -3.180742 -8.782392 0.000000 0.000000 0.000000 6.688261 19.867102 -22.271291 -0.062089 -1.604392 4.413741 0.922174 -19.261383 -17.517856 -0.111287 -2.150844 5.922819 -0.846687 -0.873729 -9.200195 -1.062360 -0.988992 -1.153453 -0.747250 -0.477754 3.955966 0.513387 -0.341814 -9.891935 -2.645868 0.559786 23.783639 -0.899846 0.223447 9.083171 0.000000 0.000000 0.000000 -3.207084 -11.935754 -35.344176 29.063164 -40.073501 10.802530 18.552027 -16.826540 -47.869900 0.000000 0.000000 0.000000 -7.125000 0.000000 0.000000 -43.750983 75.938692 33.067675 0.000000 0.000000 0.000000 1.952304 6.359981 7.603778 -13.545682 -22.081283 -2.655088 -20.998254 31.516575 -8.653506 0.000000 0.000000 0.000000 7.125000 0.000000 0.000000 4.244596 20.732030 2.473174
-1.547834 17.018024 0.072857 149.288002 85.034676 156.327988 0.000000 0.000000 0.000000 -23.585883 4.669012 -0.417976 0.792381 5.682153 15.865044 1.929352 -4.356967 -25.251704 0.253477 -3.238419 -8.943391 0.000000 0.000000 0.000000 7.713896 16.888933 -23.826801 -0.203505 -2.900165 8.001292 0.759021 -17.239374 -15.121709 -0.092884 -1.964402 5.407331 -0.614212 -1.142992 -9.826565 -1.000368 -1.355476 -1.551286 -0.867094 -0.650567 3.884491 1.086847 -0.377167 -9.829234 -3.294795 0.549639 23.648561 -1.218900 0.203230 9.025260 0.000000 0.000000 0.000000 -2.983638 -10.954876 -36.501393 31.772704 -42.363350 12.587989 18.451301 -19.249004 -49.000133 0.000000 0.000000 0.000000 -7.125000 0.000000 0.000000 -47.716132 76.561822 36.872324 0.000000 0.000000 0.000000 0.336149 6.696813 4.084152 -12.818707 -21.020767 -2.388105 -20.194638 35.019322 -8.439513 0.000000 0.000000 0.000000 7.125000 0.000000 0.000000 4.822363 21.010005 2.782456
